<svg width="24" height="24" viewBox="0 0 24 24" fill="none" xmlns="http://www.w3.org/2000/svg">
<path d="M15.9907 9.7832C15.1836 9.7832 14.4209 9.94284 13.7114 10.2267L13.0905 7.52156L16.5406 4.07145C17.055 3.57477 17.055 2.71446 16.5406 2.19118C16.0262 1.6679 15.1748 1.67145 14.6604 2.19118L11.2102 5.64129L3.0506 3.76103L1.80005 5.01158L8.38985 8.45282L4.93974 11.9118L2.74018 11.6014L1.80005 12.5415L4.62045 14.1025L6.19029 16.9318L7.12156 15.9916L6.82 13.7743L10.2701 10.342L11.1748 12.0803C10.3056 13.1446 9.78231 14.5105 9.78231 15.9916C9.78231 19.424 12.5584 22.2 15.9907 22.2C19.4231 22.2 22.1992 19.424 22.1992 15.9916C22.1992 12.5593 19.4231 9.7832 15.9907 9.7832ZM15.9907 20.4262C13.5428 20.4262 11.5561 18.4395 11.5561 15.9916C11.5561 13.5437 13.5428 11.557 15.9907 11.557C18.4386 11.557 20.4253 13.5437 20.4253 15.9916C20.4253 18.4395 18.4386 20.4262 15.9907 20.4262ZM16.4342 16.2134V12.444H15.1038V16.8785L18.3056 18.7943L18.9708 17.7122L16.4342 16.2134Z" fill="#F2C94C"/>
</svg>
